<svg xmlns="http://www.w3.org/2000/svg" version="1.1" width="600px" height="600px" viewBox="0 0 200 200" style="overflow:hidden!important;"><g id="svga-group-wrapper"><g id="svga-group-backs-single"></g><g id="svga-group-humanwrap-move" transform="matrix(1,0,0,1,0,0)"><g id="svga-group-humanwrap"><g id="svga-group-hair-back-move" transform="matrix(1,0,0,1,0,0)"><g id="svga-group-hair-back"><path id="SvgjsPath13648" d="M58.6 164.6s47.6 7 84.6.2c0 0 3.1-70.8-1.9-80.7s-75.1-17.4-80.7 1-3.4 72-2 79.5z" fill="#4d2400" stroke-width="none" opacity="1" stroke="none"></path></g></g><g id="svga-group-humanbody-back"><path id="SvgjsPath12855" d="m168.5 219.5-1.7-21.5s.7-9-8.8-15.3-23.4-10.1-29.5-14.2c-6.1-4.1-9.2-4.5-9-16.9s.9-40.3.9-40.3H79.6s.7 27.9.9 40.3c.2 12.4-2.9 12.8-9 16.9-6.1 4.1-20 7.9-29.5 14.2S33.2 198 33.2 198l-1.6 21.5h136.9z" fill="#f4baa3" stroke-width="none" opacity="1" stroke="none"></path></g><g id="svga-group-chinshadow-single"><path id="SvgjsPath13151" d="M96.1 160.3c2.4 1.4 5.4 1.4 7.9 0 4.03-2.19 10.37-5.84 15.51-9.27.21-12.66.89-39.73.89-39.73H79.6s.68 26.97.89 39.66c5.16 3.45 11.55 7.13 15.61 9.34z" fill="#d58464" stroke-width="none" opacity="0.65" stroke="none"></path></g><g id="svga-group-humanbody-front"><path id="SvgjsPath12856" d="M73.8 175.9c5.1 2.9 11.8 5.2 17.6 5.7.4 0 .4-.6.1-.7-2.8-1.1-5.9-1.7-8.8-2.6-2.9-.9-5.8-2-8.8-2.7-.1-.1-.3.2-.1.3zm35.2 6.2c5.3-.6 11.3-3 15.9-5.8.3-.2.1-.6-.2-.5-2.6.9-5.2 2-7.8 2.9-2.6.9-5.4 1.5-8 2.5-.5.1-.5.9.1.9z" fill="#d58464" stroke-width="none" opacity="1" stroke="none"></path><path id="SvgjsPath12857" d="m168.4 219.4-2.1-21.4c0-2.2-.5-4.5-1.5-6.6-.9-2.1-2.3-3.9-3.9-5.5s-3.5-2.8-5.5-4c-2-1.2-4.1-2.2-6.2-3.1-4.2-1.9-8.6-3.6-12.9-5.4-2.2-.9-4.3-1.9-6.4-3-1.1-.6-2.1-1.2-3-1.9-1-.6-2-1.2-3-1.9s-2-1.5-2.8-2.6c-.8-1-1.3-2.2-1.7-3.4-.7-2.4-.8-4.8-.8-7.2 0-4.7.2-9.4.3-14.1.2-9.4.6-18.7.9-28l.6.6-20.4-.2-20.4-.1.3-.3.7 28c.1 4.7.3 9.3.4 14 0 2.4-.1 4.7-.8 7.1-.3 1.2-.9 2.3-1.6 3.3-.8 1-1.7 1.8-2.7 2.5s-2 1.3-2.9 2c-.9.6-1.9 1.3-3 1.9-2.1 1.2-4.2 2.1-6.4 3.1-4.3 1.9-8.6 3.6-12.8 5.6-2.1 1-4.2 2.1-6.1 3.2-2 1.2-3.8 2.4-5.4 4-1.6 1.6-2.9 3.4-3.8 5.4-.4 1-.8 2.1-1 3.1-.2 1.1-.4 2.2-.3 3.2v.2l-1.5 21.5-1-1.1 34 .1c11.3 0 22.7.1 34.1.2l34.2.3 34.4.5zm.2.2-34 .4-34.2.3c-11.4.1-22.9.2-34.4.2l-34.4.1h-1.1l.1-1.1 1.7-21.5v.1c-.1-5.1 2.2-9.8 5.7-13.3 1.7-1.7 3.8-3.1 5.8-4.3 2-1.2 4.2-2.2 6.3-3.2 4.3-2 8.7-3.7 13-5.4 2.1-.9 4.3-1.8 6.3-2.9 1-.5 1.9-1.1 3-1.8 1-.6 2-1.2 2.9-1.9.9-.6 1.8-1.4 2.4-2.2.7-.9 1.2-1.9 1.5-2.9.6-2.1.8-4.5.8-6.8 0-4.6-.1-9.3-.2-14l-.6-28v-.3h.3l20.4-.1 20.4-.2h.6v.6c-.1 9.3-.2 18.7-.4 28-.1 4.7-.2 9.4-.2 14 .1 2.3.2 4.6.8 6.7.3 1.1.8 2 1.4 2.9.6.8 1.4 1.6 2.4 2.2.9.6 1.9 1.3 2.9 1.9 1 .7 1.9 1.3 2.9 1.8 2 1.1 4.1 2.1 6.3 3 4.3 1.8 8.6 3.6 12.9 5.6 2.1 1 4.2 2.1 6.2 3.3 2 1.2 4 2.6 5.7 4.3 3.4 3.4 5.6 8.1 5.4 13v-.1l1.4 21.6zm-112.8-.4 1.9-13.8.1 13.8h-2zm88.6 0-1.9-13.8-.1 13.8h2z" fill="#c66c49" stroke-width="none" opacity="1" stroke="none"></path></g><g id="svga-group-clothes-single"><path id="SvgjsPath13801" d="m122.4 220 2.7-26.8s-14.3 16-25 19.1c0 0-16.5-9.3-26.3-19.1l3.9 26.8h44.7z" fill="#efefef" stroke-width="none" opacity="1"></path><path id="SvgjsPath13802" d="M125.3 192.9c-.2-.2-.4-.1-.6 0a147.859 147.859 0 0 1-11.5 10.9c-2 1.7-4.1 3.3-6.3 4.8-2.2 1.4-4.5 2.7-6.9 3.5-2.3-1.3-4.6-2.7-6.9-4.2-2.3-1.5-4.5-3-6.7-4.6-4.4-3.2-8.6-6.6-12.4-10.4-.1-.1-.2-.1-.3-.1-.2 0-.3.2-.3.4.6 4.5 1.2 8.9 1.8 13.4.6 4.5 1.2 8.9 1.9 13.4 0 .2.3.4.5.4h11.3l11.2-.1 11.2-.1 11.1-.2 1.6-13.3 1.5-13.5c0-.1-.1-.2-.2-.3zm-1.9 13.5-1.1 13.5-11.3-.2-11.2-.1-11.2-.1H77.9c-.6-4.3-1.3-8.6-1.9-13-.6-4.1-1.2-8.2-1.9-12.3 3.7 3.5 7.8 6.6 11.9 9.5 2.2 1.6 4.5 3.1 6.8 4.5s4.6 2.9 7 4.3h.1c2.6-.8 4.9-2 7.2-3.4s4.4-3 6.5-4.6c2.1-1.7 4.1-3.4 6-5.3 1.6-1.5 3.2-3.2 4.7-4.8-.2 4-.5 8-.9 12z" fill="#000000" stroke-width="none" opacity="1" stroke="none"></path><path id="SvgjsPath13803" d="M75.7 167.9s1.2-3.7 1.7-6.4c.6-2.7.4-9.3.4-9.3s-1.9 4.1-4.6 6.4-13.2 9.1-13.2 9.1l2.3 1.6S37.7 178 36 179.2c-1.7 1.2-1.9 3.7-1.9 3.7l-2.1.6c-4.1 16.8-4.1 36.6-4.1 36.6h54.5s-2.3-16.6-3.3-23c-.9-6.5-3.4-29.2-3.4-29.2zm92.7 15.5-2.1-.6s-.2-2.5-1.9-3.7c-1.7-1.2-26.3-9.9-26.3-9.9l2.3-1.6s-10.4-6.8-13.2-9.1c-2.7-2.3-4.6-6.4-4.6-6.4s-.2 6.6.4 9.3 1.7 6.4 1.7 6.4-2.5 22.6-3.5 29c-1 6.4-3.3 23-3.3 23h54.5c0 .2 0-19.5-4-36.4z" fill="#000000" stroke-width="none" opacity="1" stroke="none"></path><path id="SvgjsPath13804" d="M140.3 179c-1.8-1.9-4.2-3.2-6.2-5-2-1.8-3.6-3.9-5.4-5.9-.2-.2-.6.1-.4.3 1.3 2.5 3.1 4.7 5.1 6.7 1.7 1.7 3.9 3.9 6.3 4.7-5.2 9.5-8.4 21.2-9.6 31.9 0 .2.3.3.4.1 1.2-5.5 2.2-11 3.9-16.4 1.6-5.4 4.1-10.4 6.1-15.7.1-.1 0-.2-.1-.3.1-.1 0-.2-.1-.4zm-2-11.9c-2.1-1.2-4.3-2.2-6.3-3.6-2.2-1.5-4.2-3.3-6.1-5.2-.2-.2-.4.1-.2.2 3.1 3.9 7.5 7.8 12.4 9.1.3.2.5-.3.2-.5zm18.9 10.5c-5.7-2.4-11.6-4.6-17.5-6.4-.2-.1-.3.2-.1.3 3.5 1.7 7.1 3.3 10.7 4.8 4.6 1.9 10.2 3.1 12.7 7.8.2.4.8.1.7-.3-.6-3.5-3.5-5-6.5-6.2zm9.5 8.4c-.1-.4-.7-.3-.7.1.7 5.4 1.9 10.6 2.5 16 .6 5.4.4 10.9 1.1 16.2 0 .4.5.4.6 0 1.2-9.9-.4-22.8-3.5-32.3zm-92.6-16.9c.5-1 .6-2.2.8-3.3.3-1.2.7-2.4 1-3.6.1-.2-.2-.3-.3-.1-.7 1-1.1 2.1-1.6 3.2-.4 1.1-.9 2.4-.8 3.6.1.4.7.7.9.2zm-.3 1.6c0-.1-.2-.1-.2 0-.1 6.5 1.2 13.2 2.2 19.7 1 7.1 2.1 14.3 4 21.3 0 .1.1 0 .1 0-.7-6.6-1.8-13.1-2.8-19.6-1.2-7-1.5-14.4-3.3-21.4zm-5.1 0c-2.8 3.1-5.4 5.9-8.8 8.3-.4.3-.3.9.1 1 1.4 4.4 3.4 8.5 4.8 12.9 1.4 4.5 2.3 9.2 3.5 13.7.1.3.5.2.5-.1-.5-8.7-3.2-19.2-7.9-26.7 3.3-2.3 6.5-5.2 8.4-8.7 0-.4-.4-.7-.6-.4zm-32.6 11.1c1.3 5.7 3.9 11.4 5.9 16.9.1.3.5.2.5-.1-1.1-5.6-2.6-12.2-5.6-17.1-.4-.4-.9-.1-.8.3z" fill="#0f0f0f" stroke-width="none" opacity="1" stroke="none"></path><path id="SvgjsPath13805" d="M80.7 200.4c-.3-2.2-.6-4.3-.9-6.5-1.1-8.6-2.2-17.3-3.4-25.9.4-1.2.7-2.5 1-3.7.1-.3.2-.6.2-.9.3-.4.9-1.1 1.3-2 .6-1.4 1.1-3.8 1.2-6.2s0-4.8 0-4.8-2.4 1.1-2.5 1.8c-.9 1.8-1.9 3.4-3.2 4.9-1.2 1.5-2.9 2.6-4.5 3.8-3 2.1-6 4.1-9.2 6-.3.2-.6.3-.9.5l-.1.1c-.2.2-.1.5.1.6.4.3.8.6 1.2.8l.2.2c-4.8 1.6-9.6 3.2-14.4 4.9-2.5.9-5.1 1.8-7.6 2.8l-1.9.8-1 .4c-.3.2-.7.3-1 .6-.7.5-1.2 1.2-1.5 1.9-.2.5-.4 1.1-.5 1.6l-1.6.4c-.3.1-.5.3-.6.6-1.4 6-2.2 12.2-2.8 18.3-.2 3.1-.5 6.1-.5 9.2 0 1.5-.1 3.1-.1 4.6v4.6l27 .6 13.8.2c4.6.1 9.2.1 13.8.1h.2c.6-.1 1-.6.9-1.2l-1.8-13-.9-6.1zM28 219.9c.1-.1 0-.3.1-.5v-.6l.1-1.1.1-2.3c.1-1.5.2-3.1.4-4.6.3-3.1.6-6.1 1-9.1s.9-6.1 1.4-9.1c.5-2.9 1.1-5.7 1.8-8.5l1.6-.4h.1c.5 1.2 1.1 2.4 1.5 3.7l.9 2.2.8 2.3c1 3 1.9 6.1 2.6 9.2.8 3.1 1.4 6.2 2 9.4.3 1.6.5 3.2.7 4.8.2 1.4.4 2.9.5 4.4l-15.6.2zm41-.8-13.5.2-12 .3c0-3.1-.2-6.2-.6-9.2-.4-3.2-1-6.4-1.7-9.5-.8-3.1-1.7-6.2-2.9-9.2-1-2.8-2.3-5.4-3.8-8 .2-.1.4-.4.4-.6.1-1.1.6-2.3 1.4-2.9.2-.2.4-.2.7-.4l.9-.4 1.9-.8 7.5-2.9 15-5.7c1.2.6 2.5 1.1 3.9 1.5-.5.4-1 .9-1.5 1.3-1.2 1-2.5 2-3.7 3-1.3.9-2.6 1.8-3.9 2.6-.4.2-.5.7-.4 1.1 1.3 3.3 2.6 6.6 3.8 9.9 1.2 3.3 2.3 6.7 3.5 10.1 1.1 3.4 2.1 6.8 3.1 10.2.9 3.1 1.6 6.3 2.4 9.5-.2-.1-.3-.1-.5-.1zm.6 0c-.3-3.3-.7-6.5-1.3-9.7-.7-3.5-1.5-7-2.5-10.5s-2.1-6.9-3.3-10.3c-1.2-3.1-2.4-6.2-3.8-9.3 1.2-.8 2.2-1.6 3.3-2.5 1.2-1 2.4-2.1 3.6-3.3 2.3-2.3 4.5-4.6 6.5-7.1-1.9 1.7-3.7 3.3-5.6 4.9-1.2-.9-2.4-1.6-3.7-2.3 0 0 0-.1-.1-.1l-1.1-.7c-.2-.1-.4-.3-.7-.4.1-.1.2-.1.3-.2 3-2 6-4.1 9-6.2 1.6-1.2 3.3-2.3 4.7-3.8 1-1.2 1.9-2.5 2.7-3.8 0 2.2-.1 4.4-.3 6.5-.2 1.3-.5 2.5-.9 3.8-.4 1.3-.8 2.5-1.2 3.8v.2c.8 8.7 1.8 17.4 2.8 26.1.2 2.2.5 4.4.8 6.5l.9 6.5 1.7 11.8c-4 0-7.9 0-11.8.1zm102.9-8.3c-.1-3.1-.3-6.1-.6-9.2-.5-6.1-1.4-12.3-2.8-18.3-.1-.3-.3-.5-.6-.6l-1.6-.4c-.1-.6-.2-1.1-.5-1.6-.3-.7-.8-1.4-1.5-1.9-.3-.3-.7-.4-1.1-.6l-1-.4-1.9-.8c-2.5-1-5.1-1.9-7.6-2.8-4.8-1.7-9.6-3.3-14.4-4.9l.2-.2c.4-.3.8-.5 1.2-.8.2-.1.3-.4.1-.6 0-.1-.1-.1-.1-.1-.3-.2-.6-.4-.9-.5-3.1-1.9-6.2-3.9-9.1-6-1.6-1.2-3.3-2.3-4.5-3.8-1.3-1.5-2.3-3.2-3.2-4.9 0-.1-.1-.1-.1-.1-.5-.6-2.4-1.1-2.4-1.1-.1 2.9-.1 7.4.5 9.7.4 1.7 1.8 3.6 2.4 4.5.3 1 .5 2 .8 2.9-1.2 8.6-2.3 17.2-3.4 25.9-.3 2.2-.6 4.3-.9 6.5l-1 6.5-1.8 13c-.1.6.3 1.1.9 1.2h.2c4.6 0 9.2 0 13.8-.1l13.8-.2 27-.6c.1-.3 0-.5.1-.6v-4c.1-2.1.1-3.6 0-5.1zm-53.4 8.1 1.7-11.8.9-6.5c.3-2.2.6-4.3.8-6.5 1-8.7 1.9-17.4 2.8-26.1v-.2c-.4-1.2-.8-2.5-1.2-3.8-.3-1.3-.7-2.5-.9-3.8-.2-2.1-.3-4.3-.3-6.5.8 1.4 1.7 2.6 2.7 3.8 1.3 1.6 3.1 2.7 4.7 3.8 3 2.1 6 4.1 9 6.2.1.1.2.1.3.2-.2.1-.4.3-.7.4l-1.1.7-.1.1c-1.3.7-2.5 1.4-3.7 2.3-1.9-1.6-3.8-3.2-5.6-4.9 2 2.5 4.2 4.9 6.5 7.1 1.1 1.1 2.3 2.2 3.6 3.3 1.1.9 2.1 1.7 3.3 2.5-1.4 3.1-2.6 6.1-3.8 9.3-1.2 3.4-2.4 6.8-3.3 10.3-1 3.4-1.8 7-2.5 10.5-.6 3.2-1.1 6.5-1.3 9.7-4 0-7.9 0-11.8-.1zm25.8.4-13.5-.2h-.5c.8-3.2 1.5-6.3 2.4-9.5.9-3.4 2-6.9 3.1-10.2 1.1-3.4 2.2-6.8 3.5-10.1 1.2-3.3 2.5-6.7 3.9-9.9.2-.4 0-.9-.4-1.1-1.3-.7-2.6-1.6-3.9-2.6-1.3-.9-2.5-1.9-3.7-3-.5-.4-1-.9-1.5-1.3 1.3-.4 2.6-1 3.9-1.5l15 5.7 7.5 2.9 1.9.8.9.4c.3.1.5.2.7.4.8.6 1.3 1.8 1.4 2.9 0 .3.2.5.4.6-1.4 2.6-2.7 5.2-3.8 8-1.2 3-2.1 6.1-2.9 9.2-.7 3.1-1.4 6.3-1.7 9.5-.4 3.1-.6 6.1-.6 9.2l-12.1-.2zm12 .3c.2-1.5.3-2.9.6-4.4.2-1.6.5-3.2.7-4.8.6-3.2 1.2-6.3 1.9-9.4.7-3.1 1.6-6.2 2.6-9.2l.8-2.3.9-2.2c.4-1.2 1-2.4 1.5-3.7h.1l1.6.4c.6 2.8 1.3 5.6 1.8 8.5.5 3 1 6 1.4 9.1.4 3 .7 6.1.9 9.1.1 1.5.3 3.1.4 4.6l.1 2.3.1 1.1v.6c0 .2 0 .4.1.5l-15.5-.2z" fill="#000000" stroke-width="none" opacity="1" stroke="none"></path></g><g id="svga-group-head" transform="matrix(1,0,0,1,0,0)"><g id="svga-group-ears-left-move" transform="matrix(1,0,0,1,0,0)"><g id="svga-group-ears-left"><path id="SvgjsPath12804" d="M64.2 96.3c-.2-.3-3.1-4-5.5-6.3-2.5-2.3-3.2-2.2-4.4-.8s-2.7 8.5-2.3 11.7 3.3 8.2 4.9 11c1.6 2.8 3.1 6.3 4.8 6 1.8-.3 4.2-4.3 5.3-7.3 1.2-3 .6-10.3-2.8-14.3z" fill="#f4baa3" stroke-width="none" opacity="1" stroke="none"></path><path id="SvgjsPath12805" d="M67.9 104.8c.1.8.2 1.6.2 2.4s0 1.6-.2 2.4l-.3 1.2c-.1.4-.3.7-.4 1-.3.7-.6 1.3-.9 2-.7 1.2-1.4 2.4-2.4 3.4-.5.5-1 1-1.7 1.2-.3.1-.8.1-1.2 0-.4-.2-.7-.4-1-.7-1.2-1.2-1.8-2.6-2.5-4s-1.4-2.7-2.1-4.1c-.7-1.4-1.4-2.8-2-4.2-.3-.7-.6-1.4-.9-2.2-.3-.7-.5-1.5-.6-2.3-.2-1.6 0-3.2.1-4.7.2-1.5.4-3 .8-4.5.2-.7.4-1.5.7-2.2.1-.2.2-.3.3-.5s.2-.4.3-.5c.2-.3.5-.5.8-.7s.7-.3 1.1-.3c.4.1.7.2 1.1.4.6.4 1.1.9 1.7 1.4 2 2.1 3.7 4.5 5.6 6.8 1.8 2.5 2.9 5.6 3.5 8.7zm-9.6-14.6c-1-.8-2.2-1.7-2.9-1.2-.2.1-.4.3-.6.6-.1.1-.2.2-.2.3-.1.1-.1.3-.2.4-.3.6-.5 1.2-.7 1.9-.4 1.3-.8 2.8-1.1 4.2-.3 1.4-.5 3-.4 4.4.1.7.3 1.5.5 2.2l.9 2.1c.6 1.4 1.4 2.7 2.2 4s1.6 2.6 2.3 3.9c.4.7.7 1.3 1.1 1.9.4.6.8 1.2 1.2 1.6s.8.6 1.2.4.9-.5 1.3-1c.8-.9 1.5-2 2.2-3.2l.9-1.8c.1-.3.3-.6.4-.9l.2-.4c0-.2.1-.3.1-.5.3-1.3.3-2.8.3-4.3-.1-1.5-.3-3-.8-4.5s-1.2-2.9-2.1-4c-1.7-2.2-3.7-4.4-5.8-6.1z" fill="#e59e82" stroke-width="none" opacity="1" stroke="none"></path><path id="SvgjsPath12806" d="M54.1 102.4c-.2-2.1-.4-7.4.8-9 2-2.7 5.6 6.1 6.5 8.8 0 .1.1.2.1.2.1.3-.1.7-.4.6-.4-.2-.8-.6-1.2-.8-1.1-.5-1.5.4-1.2 1.7.4 1.7 1.3 2.7 2.1 4 .1.2 0 .4-.2.3-1.5-.9-3.3-4.2-2.9-6.2.3-1.8 1.8-1.7 2.9-.8-.7-1.6-1.4-3.1-2.3-4.5-.6-.9-1.1-1.9-2-2-1.1-.2-.9.3-1.1 1.7-.8 4.6-.3 9.7 2.4 13.7.1.1 0 .2-.1.1-2-2.2-3.1-4.7-3.4-7.8z" fill="#d58464" stroke-width="none" opacity="1" stroke="none"></path></g></g><g id="svga-group-ears-right-move" transform="matrix(1,0,0,1,0,0)"><g id="svga-group-ears-right"><path id="SvgjsPath12807" d="M135.8 96.3c.2-.3 3.1-4 5.5-6.3 2.5-2.3 3.2-2.2 4.4-.8s2.7 8.5 2.3 11.7-3.3 8.2-4.9 11c-1.6 2.8-3.1 6.3-4.8 6-1.8-.3-4.2-4.3-5.3-7.3-1.2-3-.6-10.3 2.8-14.3z" fill="#f4baa3" stroke-width="none" opacity="1" stroke="none"></path><path id="SvgjsPath12808" d="M135.7 96.3c1.8-2.3 3.5-4.7 5.6-6.8.5-.5 1-1 1.7-1.4.3-.2.7-.4 1.1-.4.4-.1.8.1 1.1.3.3.2.6.5.8.7.1.1.2.3.3.5s.2.3.3.5c.3.7.5 1.4.7 2.2.4 1.5.6 3 .8 4.5.1 1.5.3 3.1.1 4.7-.1.8-.3 1.6-.6 2.3-.3.8-.6 1.5-.9 2.2-.6 1.4-1.3 2.8-2 4.2-.7 1.4-1.4 2.7-2.1 4.1-.7 1.4-1.4 2.8-2.5 4-.3.3-.6.6-1 .7s-.9.2-1.2 0c-.7-.2-1.2-.7-1.7-1.2-1-1-1.7-2.2-2.4-3.4-.3-.6-.6-1.3-.9-2-.1-.3-.3-.7-.4-1l-.3-1.2c-.1-.8-.2-1.6-.2-2.4s.1-1.6.2-2.4c.5-3.3 1.6-6.4 3.5-8.7zm.1.1c-.9 1.1-1.6 2.5-2.1 4s-.7 3-.8 4.5 0 3 .3 4.3c0 .2.1.3.1.5l.2.4c.1.3.3.6.4.9l.9 1.8c.6 1.2 1.4 2.3 2.2 3.2.4.4.9.8 1.3 1 .4.2.8 0 1.2-.4s.8-1 1.2-1.6.8-1.3 1.1-1.9c.7-1.3 1.6-2.6 2.3-3.9.8-1.3 1.5-2.6 2.2-4l.9-2.1c.3-.7.5-1.5.5-2.2.1-1.5-.1-3-.4-4.4-.3-1.4-.6-2.9-1.1-4.2-.2-.7-.5-1.3-.7-1.9-.1-.1-.1-.3-.2-.4-.1-.1-.1-.2-.2-.3l-.6-.6c-.7-.6-1.8.4-2.9 1.2-2 1.6-4 3.8-5.8 6.1z" fill="#e59e82" stroke-width="none" opacity="1" stroke="none"></path><path id="SvgjsPath12809" d="M145.9 102.4c.2-2.1.4-7.4-.8-9-2-2.7-5.6 6.1-6.5 8.8 0 .1-.1.2-.1.2-.1.3.1.7.4.6.4-.2.8-.6 1.2-.8 1.1-.5 1.5.4 1.2 1.7-.4 1.7-1.3 2.7-2.1 4-.1.2 0 .4.2.3 1.5-.9 3.3-4.2 2.9-6.2-.3-1.8-1.8-1.7-2.9-.8.7-1.6 1.4-3.1 2.3-4.5.6-.9 1.1-1.9 2-2 1.1-.2.9.3 1.1 1.7.8 4.6.3 9.7-2.4 13.7-.1.1 0 .2.1.1 2-2.2 3.1-4.7 3.4-7.8z" fill="#d58464" stroke-width="none" opacity="1" stroke="none"></path></g></g><g id="svga-group-faceshape-wrap"><g id="svga-group-faceshape-single"><path id="SvgjsPath13141" d="M100 41.3c-21.4 0-39.8 15.6-41 44.1 0 0 .1 18.1 3.7 29 3 9.1 5.4 16.1 12.9 22.2 5.2 4.2 15 9.9 20.5 12.9 2.5 1.4 5.4 1.4 7.9 0 5.5-3 15.3-8.7 20.5-12.9 7.4-6.1 9.8-13.1 12.9-22.2 3.6-10.9 3.7-29 3.7-29-1.3-28.4-19.7-44.1-41.1-44.1z" fill="#f4baa3" stroke-width="none" opacity="1" stroke="none"></path><path id="SvgjsPath13142" d="M100 41.3c-21.4 0-39.8 15.6-41 44.1 0 0 .1 18.1 3.7 29 3 9.1 5.4 16.1 12.9 22.2 5.2 4.2 15 9.9 20.5 12.9 2.5 1.4 5.4 1.4 7.9 0 5.5-3 15.3-8.7 20.5-12.9 7.4-6.1 9.8-13.1 12.9-22.2 3.6-10.9 3.7-29 3.7-29-1.3-28.4-19.7-44.1-41.1-44.1zm29.8 15.5.6.9.3.5.3.5c3.2 5.1 5.3 10.9 6.4 16.8.1.4.1.7.2 1.1l.2 1.1c.1.4.1.7.2 1.1l.3 2.3.1 1.1c.1.8.1 1.5.1 2.2v.6s-.1 3.1-.1 3.9c-.1 1.5-.2 3.1-.3 4.6-.2 3.1-.5 6.2-.9 9.2l-.3 2.3-.4 2.3-.4 2.2-.5 2.2-.6 2.1-.7 2.2c-.5 1.5-1 2.9-1.5 4.4-1.1 2.9-2.3 5.6-3.8 8-1.6 2.5-3.5 4.6-5.8 6.5s-4.8 3.7-7.4 5.4c-1.3.9-2.6 1.7-3.9 2.6-1.3.8-2.6 1.7-4 2.5-1.3.8-2.7 1.6-4 2.5 0 0-1.5.8-1.8.9-.6.2-1.3.3-1.9.4-.7 0-1.3 0-2-.2-.3-.1-1.9-.8-1.9-.8-1.4-.7-2.8-1.4-4.2-2.2-1.4-.7-2.8-1.5-4.1-2.3-1.4-.8-2.7-1.6-4-2.4-1.3-.8-2.7-1.7-3.9-2.5-1.3-.9-2.6-1.8-3.8-2.7-2.4-1.9-4.5-4.2-6.2-6.8-1.7-2.6-2.9-5.4-3.9-8.3-.5-1.5-2.5-8.3-2.7-9-.7-3-1.1-6.1-1.4-9.1-.3-3.1-.5-6.2-.6-9.3-.1-1.6-.1-3.1-.2-4.7v-4s.1-2.1.2-2.8l.3-2.3.6-3.3c.59-4.01 3.5-12.8 6.7-17.9l.3-.5.3-.5.6-.9c.2-.3 1.2-1.5 1.4-1.8 1-1.2 2-2.3 3.1-3.4.3-.3.6-.5.8-.8l.9-.8c.6-.5 1.2-1 1.8-1.4.3-.2 1.5-1.1 1.9-1.3l1-.6 1-.6s1.7-.9 2-1.1l2.1-.9c.4-.2 2.2-.8 2.2-.8s1.8-.5 2.2-.6c.8-.2 3.5-.7 3.5-.7l1.2-.2c.8-.1 3.1-.2 3.5-.2 0 0 5.2.2 5.9.3l2.4.4c.8.1 1.5.3 2.3.5.4.1.8.2 1.1.3l2.2.7c.4.1 2.5 1 3.2 1.3.3.2 2 1.1 2 1.1l.5.3.5.3 1 .6c.3.2.6.4 1 .6.3.2.6.4.9.7.6.5 1.2.9 1.8 1.4l.9.8c.3.3.6.5.8.8 1.1 1 2.1 2.2 3.1 3.4.1.3 1.1 1.5 1.3 1.8z" fill="#c66c49" stroke-width="none" opacity="1" stroke="none"></path></g></g><g id="svga-group-mouth-single-move" transform="matrix(1,0,0,1,0,0)"><g id="svga-group-mouth-single"><path id="SvgjsPath13197" d="M87.3 127.9s2.9-.8 4.7-1.5 3.9-1.3 5.1-.9 2.9 1.5 3.7 1.5c.8-.1 2.2-.9 3.3-1.3 1.1-.4 3.2-.1 5.8 1 2.6 1.1 4.5 1.5 4.5 1.5s-6.2 4.3-8.5 5.1c-1.7.6-8.1.1-9.7-.1s-5.5-2.6-6.7-3.5-2.2-1.8-2.2-1.8z" fill="#9b565f" stroke-width="none" opacity="1" transform="translate(0 3)" stroke="none"></path><path id="SvgjsPath13198" d="M85.1 128c2.1 1.2 4.5 1 6.8.7 1.7-.2 3.3-.3 4.9.4 1 .4 1.9 1.2 3 1.4 2.1.3 4-1.6 6-2 3.1-.5 6.4.2 9.5.1 1 0 .8-1.5-.2-1.4-2.7.4-5.4-.2-8.1.2-2.7.4-5.6 3.2-8.3 2.1-1.9-.8-3.2-1.7-5.4-1.9-2.7-.3-5.3 0-7.9-.7-.5-.1-.8.8-.3 1.1z" fill="#8c4049" stroke-width="none" opacity="1" transform="translate(0 3)" stroke="none"></path><path id="SvgjsPath13199" d="M110.4 129.6c-1.3.7-2.5 1.5-3.9 2-1.2.4-2.5.7-3.8.9-.2 0-.1.3 0 .3 2.8.2 6-.8 8-2.8.1-.2-.1-.5-.3-.4z" fill="#aa7077" stroke-width="none" opacity="1" transform="translate(0 3)" stroke="none"></path><path id="SvgjsPath13200" d="M103.9 126.5c1.2-.2 2.2-.1 3.4.1.2 0 .2-.2.1-.3-1.1-.6-2.4-.5-3.5-.1-.3 0-.2.3 0 .3z" fill="#aa7077" stroke-width="none" opacity="1" transform="translate(0 3)" stroke="none"></path></g></g><g id="svga-group-eyes-left-move" transform="matrix(1,0,0,1,0,0)"><g id="svga-group-eyes-left"><g id="svga-group-eyesback-left"><path id="SvgjsPath13345" d="M92.2 101.8s-.6-1.9-2-3.8-3.3-3.9-6.6-4.5c-3.3-.6-12.1 2.2-12.1 2.2s1.4 1.9 3.1 3.1 6.3 2.9 8.2 2.8c1.9-.1 4.2-.5 5.2-.5 1.2 0 3.2 0 4.2.7z" fill="#ffffff" stroke-width="none" opacity="1"></path></g><g id="svga-group-eyesiriswrapper-left" transform="matrix(1,0,0,1,0,0)"><g id="svga-group-eyesiriscontrol-left" transform="matrix(1,0,0,1,0,0)"><g id="svga-group-eyesiris-left"><path id="SvgjsPath13497" d="M82 91.2c2.9 0 5.2 2.3 5.2 5.2s-2.3 5.2-5.2 5.2-5.2-2.3-5.2-5.2 2.3-5.2 5.2-5.2z" fill="#6e3b00" stroke-width="none" opacity="1" stroke="none"></path><path id="SvgjsPath13498" d="M82 101.8c-3 0-5.4-2.4-5.4-5.4S79 91 82 91s5.4 2.4 5.4 5.4-2.4 5.4-5.4 5.4zm0-10.3c-2.7 0-4.9 2.2-4.9 4.9s2.2 4.9 4.9 4.9 4.9-2.2 4.9-4.9-2.2-4.9-4.9-4.9z" fill="#4f2b00" stroke-width="none" opacity="1" stroke="none"></path><path id="SvgjsPath13499" d="M82 93.6c1.5 0 2.8 1.3 2.8 2.8s-1.3 2.8-2.8 2.8-2.8-1.3-2.8-2.8 1.3-2.8 2.8-2.8z" fill="#000000" stroke-width="none" opacity="1"></path><path id="SvgjsPath13500" d="M80.7 93.6c.5 0 1 .4 1 1s-.4 1-1 1-1-.4-1-1 .5-1 1-1zm3.2 4.4c.2 0 .4.2.4.4s-.2.4-.4.4-.4-.2-.4-.4.2-.4.4-.4z" fill="#ffffff" stroke-width="none" opacity="1"></path></g></g></g><g id="svga-group-eyesfront-left"><path id="SvgjsPath13353" d="M70.7 98c0 6.9 4.9 12.5 11 12.5s11-5.6 11-12.5-4.9-12.5-11-12.5-11 5.6-11 12.5zm.9-2.3s8.8-2.9 12.1-2.2c3.3.6 5.3 2.6 6.6 4.5 1.4 1.9 2 3.8 2 3.8-1-.7-3.1-.7-4.1-.7-1.1 0-3.3.5-5.2.5-1.9.1-6.4-1.7-8.2-2.8-1.9-1.2-3.2-3.1-3.2-3.1z" fill="#f4baa3" stroke-width="none" opacity="1" stroke="none"></path><path id="SvgjsPath13354" d="M71.4 96c.2.3.4.6.7.9-.8-.2-1.8 0-2.4.5-.1.1 0 .2.1.2.5-.2 1.1-.3 1.7-.3.5 0 .9.2 1.3.4.1.1.2.2.4.3-.6.1-1.1.4-1.4.8-.1.1 0 .3.1.2.5-.3 1.1-.5 1.6-.7 1.7 1.4 3.7 2.4 5.6 3 1.7.5 3.4.8 5.2.6 2.7-.3 5.1-1.4 7.8 0 .1.1.2-.1.1-.2.1 0 .1-.1.1-.2-1.2-4.4-4.7-8.2-9.4-9.1-1.9-.3-3.7 0-5.5.5-1.2-.3-2.1-.9-3.1-1.8-.1-.1-.3 0-.2.2.5.9 1.5 1.6 2.5 1.9-.3.1-.6.2-.8.3-1.8.1-3.2-.6-4.6-1.7-.1-.1-.3.1-.2.2.9 1.1 2.3 1.7 3.7 1.9-.5.2-.9.3-1.4.4-1.9 0-3.5-.6-5.2-1.7-.1-.1-.2.1-.1.2 1 1.1 2.5 1.8 4 1.9-2.3.5-4.4.3-6.8-1.2-.1-.1-.3.1-.2.2 2.2 1.9 4.3 2.4 6.4 2.3zm.5 0c1.3-.1 2.7-.5 4.2-1 3.2-1 7-1.9 10.1-.2 2.8 1.5 4.4 4.1 5.8 6.8-2.9-1.5-5.7-.3-8.8-.5-4.5-.2-8-2.4-11.3-5.1z" fill="#673b00" stroke-width="none" opacity="1" stroke="none"></path></g></g></g><g id="svga-group-eyes-right-move" transform="matrix(1,0,0,1,0,0)"><g id="svga-group-eyes-right"><g id="svga-group-eyesback-right"><path id="SvgjsPath13346" d="M107.8 101.8s.6-1.9 2-3.8 3.3-3.9 6.6-4.5c3.3-.6 12.1 2.2 12.1 2.2s-1.4 1.9-3.1 3.1-6.3 2.9-8.2 2.8c-1.9-.1-4.2-.5-5.2-.5-1.2 0-3.2 0-4.2.7z" fill="#ffffff" stroke-width="none" opacity="1"></path></g><g id="svga-group-eyesiriswrapper-right" transform="matrix(1,0,0,1,0,0)"><g id="svga-group-eyesiriscontrol-right" transform="matrix(1,0,0,1,0,0)"><g id="svga-group-eyesiris-right"><path id="SvgjsPath13501" d="M118 91.2c2.9 0 5.2 2.3 5.2 5.2s-2.3 5.2-5.2 5.2-5.2-2.3-5.2-5.2 2.3-5.2 5.2-5.2z" fill="#6e3b00" stroke-width="none" opacity="1" stroke="none"></path><path id="SvgjsPath13502" d="M118 101.8c-3 0-5.4-2.4-5.4-5.4S115 91 118 91s5.4 2.4 5.4 5.4-2.4 5.4-5.4 5.4zm0-10.3c-2.7 0-4.9 2.2-4.9 4.9s2.2 4.9 4.9 4.9 4.9-2.2 4.9-4.9-2.2-4.9-4.9-4.9z" fill="#4f2b00" stroke-width="none" opacity="1" stroke="none"></path><path id="SvgjsPath13503" d="M118 93.6c1.5 0 2.8 1.3 2.8 2.8s-1.3 2.8-2.8 2.8-2.8-1.3-2.8-2.8 1.3-2.8 2.8-2.8z" fill="#000000" stroke-width="none" opacity="1"></path><path id="SvgjsPath13504" d="M116.8 93.6c.5 0 1 .4 1 1s-.4 1-1 1-1-.4-1-1 .4-1 1-1zM120 98c.2 0 .4.2.4.4s-.2.4-.4.4-.4-.2-.4-.4.2-.4.4-.4z" fill="#ffffff" stroke-width="none" opacity="1"></path></g></g></g><g id="svga-group-eyesfront-right"><path id="SvgjsPath13355" d="M118.3 85.5c-6.1 0-11 5.6-11 12.5s4.9 12.5 11 12.5 11-5.6 11-12.5-5-12.5-11-12.5zm7 13.3c-1.7 1.2-6.3 2.9-8.2 2.8-1.9-.1-4.2-.5-5.2-.5-1.1 0-3.1 0-4.1.7 0 0 .6-1.9 2-3.8s3.3-3.9 6.6-4.5c3.3-.6 12.1 2.2 12.1 2.2s-1.4 1.9-3.2 3.1z" fill="#f4baa3" stroke-width="none" opacity="1" stroke="none"></path><path id="SvgjsPath13358" d="M134.8 93.7c.1-.1 0-.3-.2-.2-2.4 1.5-4.5 1.7-6.8 1.2 1.5-.1 2.9-.8 4-1.9.1-.1 0-.3-.1-.2-1.6 1.2-3.3 1.8-5.2 1.7-.4-.1-.9-.3-1.4-.4 1.4-.1 2.9-.7 3.7-1.9.1-.1-.1-.3-.2-.2-1.5 1.1-2.8 1.8-4.6 1.7-.3-.1-.6-.2-.8-.3 1-.3 2-1 2.5-1.9.1-.1-.1-.3-.2-.2-1 .9-1.9 1.5-3.1 1.8-1.8-.5-3.6-.8-5.5-.5-4.6.9-8.1 4.6-9.4 9.1 0 .1 0 .2.1.2-.1.1 0 .2.1.2 2.7-1.4 5.1-.3 7.8 0 1.8.2 3.5-.1 5.2-.6 1.9-.6 3.9-1.7 5.6-3 .6.2 1.1.4 1.6.7.1.1.2-.1.1-.2-.4-.4-.9-.7-1.4-.8.1-.1.2-.2.4-.3.4-.2.8-.4 1.3-.4.6 0 1.1.1 1.7.3.1 0 .2-.1.1-.2-.6-.5-1.5-.7-2.4-.5.2-.3.5-.6.7-.9 2.3.1 4.4-.4 6.4-2.3zm-18 7.5c-3.1.2-5.9-1-8.8.5 1.3-2.7 3-5.3 5.8-6.8 3.2-1.7 6.9-.8 10.1.2 1.5.5 2.9.8 4.2 1-3.3 2.6-6.8 4.8-11.3 5.1z" fill="#673b00" stroke-width="none" opacity="1" stroke="none"></path></g></g></g><g id="svga-group-facehighlight-single"></g><g id="svga-group-eyebrows-left-move" transform="matrix(1,0,0,1,0,0)"><g id="svga-group-eyebrows-left-rotate" transform="matrix(1,1.7453292519943295e-9,-1.7453292519943295e-9,1,1.5003287501258455e-7,-1.402671330197336e-7)"><g id="svga-group-eyebrows-left"><path id="SvgjsPath13625" d="M72.9 84.2c.1-.2.4-.3.6-.4.2-.1.4-.2.6-.2.4-.2.8-.4 1.2-.5.5-.1 1.2-.5 1.7-.2 1.6-.6 3.7-.2 5.1.6 1.9.2 3.9.8 5.3 1.8.1.1.2.2.2.3.3.1.5.2.8.3 1 .4 2.1.7 3.1 1.2.1 0 .2.1.3.1.3.1.4.7.2.8-.1.1-.1.2-.2.3-.8.6-1.8.2-2.6-.1-.7-.3-1.5-.6-2-1.2-.8-.3-1.4-.7-2.1-1.1-.1 0-.2-.1-.3-.1-1.2-.2-2.5-.7-3.7-1.3-.7-.1-1.3-.3-2-.3-.9-.1-1.8.2-2.8-.1h-.1c-.2.1-.4.1-.6.2-.8.2-1.5.4-2.3.4-.1 0-.2-.1-.2-.2H73s-.2-.1-.1-.3z" fill="#b7513b" stroke-width="none" opacity="1"></path><path id="SvgjsPath13626" d="M77.4 82.3c3.1-.2 6.2 1.5 9 2.6 1.7.7 5.2.9 5.9 3 .1.3-.3.4-.5.2-.9-1.2-2.4-1.4-3.8-1.8-1.2-.4-2.3-.8-3.5-1.3-2.4-1-4.8-1.6-7.3-2.2-.1-.1 0-.4.2-.5z" fill="#c66854" stroke-width="none" opacity="1"></path><path id="SvgjsPath13627" d="M93.3 87.9c.3-1.4-1.8-1.9-2.8-2.3-2.4-1-4.9-2.1-7.4-2.8-1.5-.4-3.1-.7-4.6-.7-1.2 0-2.3.1-3.5.5-2 .6-3.9 1.8-5.6 3.1-.9.5-1.8 1.2-2.5 1.9-.1.1 0 .3.2.2 0 0 .1 0 .1-.1 0 .1.1.1.2.1 1.5-.7 2.8-1.6 4.3-2.2 1.5-.6 3.1-1 4.7-1.1h.7c1.9 0 3.7.4 5.4 1.2 2.4 1.1 4.6 2.6 7 3.5.4.2.9.2 1.4.2 1.1 0 2.2-.4 2.4-1.5zM78.5 83c1.6 0 3.2.4 4.8.9 2 .7 4 1.6 6 2.4.4.2 2.4.7 2.6 1.2.2.6-.2.8-.8.9-.3 0-.6-.1-.8-.1-.6-.2-1.2-.6-1.7-.9-3.1-1.6-6.3-3.5-9.8-3.7h-1c-1.1 0-2.3.1-3.5.3.5-.2 1-.4 1.6-.6.8-.3 1.7-.4 2.6-.4z" fill="#a83c25" stroke-width="none" opacity="1"></path></g></g></g><g id="svga-group-eyebrows-right-move" transform="matrix(1,0,0,1,0,0)"><g id="svga-group-eyebrows-right-rotate" transform="matrix(1,1.7453292519943295e-9,-1.7453292519943295e-9,1,1.5032446754048578e-7,-2.0871141259704018e-7)"><g id="svga-group-eyebrows-right"><path id="SvgjsPath13628" d="M127.1 84.2c-.1-.2-.4-.3-.6-.4-.2-.1-.4-.2-.6-.2-.4-.2-.8-.4-1.2-.5-.5-.1-1.2-.5-1.7-.2-1.6-.6-3.7-.2-5.1.6-1.9.2-3.9.8-5.3 1.8-.1.1-.2.2-.2.3-.3.1-.5.2-.8.3-1 .4-2.1.7-3.1 1.2-.1 0-.2.1-.3.1-.3.1-.4.7-.2.8.1.1.1.2.2.3.8.6 1.8.2 2.6-.1.7-.3 1.5-.6 2-1.2.8-.3 1.4-.7 2.1-1.1.1 0 .2-.1.3-.1 1.2-.2 2.5-.7 3.7-1.3.7-.1 1.3-.3 2-.3.9-.1 1.8.2 2.8-.1h.1c.2.1.4.1.6.2.8.2 1.5.4 2.3.4.1 0 .2-.1.2-.2h.1s.2-.1.1-.3z" fill="#b7513b" stroke-width="none" opacity="1"></path><path id="SvgjsPath13629" d="M122.6 82.3c-3.1-.2-6.2 1.5-9 2.6-1.7.7-5.2.9-5.9 3-.1.3.3.4.5.2.9-1.2 2.4-1.4 3.8-1.8 1.2-.4 2.3-.8 3.5-1.3 2.4-1 4.8-1.6 7.3-2.2.1-.1 0-.4-.2-.5z" fill="#c66854" stroke-width="none" opacity="1"></path><path id="SvgjsPath13630" d="M109 89.3c.5 0 1-.1 1.4-.2 2.4-.9 4.7-2.4 7-3.5 1.8-.8 3.6-1.2 5.4-1.2h.7c1.6.1 3.2.5 4.6 1.1 1.5.6 2.9 1.6 4.3 2.2.1 0 .2 0 .2-.1 0 0 .1 0 .1.1.2.1.3-.1.2-.2-.7-.7-1.6-1.4-2.5-1.9-1.7-1.3-3.6-2.4-5.6-3.1-1.1-.4-2.3-.5-3.5-.5-1.6 0-3.1.3-4.6.7-2.5.7-5 1.8-7.4 2.8-.9.4-3.1.9-2.8 2.3.4 1.2 1.5 1.6 2.5 1.5zm15.2-5.9c.5.2 1.1.3 1.6.6-1.2-.2-2.3-.3-3.5-.3h-1c-3.5.2-6.8 2.2-9.8 3.7-.6.3-1.1.7-1.7.9-.2.1-.5.1-.8.1-.5 0-1-.2-.8-.9.2-.5 2.2-1 2.6-1.2 2-.8 4-1.7 6-2.4 1.6-.5 3.2-.9 4.8-.9.8 0 1.7.1 2.6.4z" fill="#a83c25" stroke-width="none" opacity="1"></path></g></g></g><g id="svga-group-nose-single-move" transform="matrix(1,0,0,1,0,0)"><g id="svga-group-nose-single"><path id="SvgjsPath13183" d="M97.72 89.37c-.8 3.33-.91 6.89-1.27 10.29-.38 3.64-1.08 7.4-1.03 11.06 0 .29.45.37.52.07.74-3.34.83-6.91 1.18-10.31.37-3.64 1.05-7.41.93-11.06 0-.19-.28-.24-.33-.05z" fill="#c66c49" stroke-width="none" opacity="1" transform="translate(0 2)" stroke="none"></path><path id="SvgjsPath13184" d="M94.71 108.8c-.98 1.31-1.8 2.73-2.52 4.2-.46.95-1.04 2.07-.73 3.16.5 1.8 2.79 2.36 4.28 1.51.44-.26.24-.95-.26-.95-.87-.01-1.89.27-2.58-.47-.84-.89-.01-2.5.36-3.4.55-1.32 1.22-2.59 1.74-3.92.07-.19-.19-.26-.29-.13z" fill="#c66c49" stroke-width="none" opacity="1" transform="translate(0 2)" stroke="none"></path><path id="SvgjsPath13185" d="M94.57 116.21c2.7-.2 3.21 3.2 5.78 3.28 2.2.07 2.37-3.24 4.46-3.14.24.01.32-.33.12-.45-2.37-1.4-2.81 2.72-4.99 2.46-1.29-.15-2.21-2.05-3.37-2.6-.79-.37-1.36-.34-2.13.01-.19.11-.09.46.13.44z" fill="#c66c49" stroke-width="none" opacity="1" transform="translate(0 2)" stroke="none"></path><path id="SvgjsPath13186" d="M104.07 117.75c1.78.4 3.85-.15 4.27-2.13.21-.99-.12-1.97-.64-2.81-.84-1.37-1.93-2.53-2.73-3.95-.13-.24-.47-.12-.48.13-.1 1.59 1.08 2.69 1.92 3.92.78 1.13 1.45 2.69.14 3.81-.6.51-1.74.42-2.48.56-.24.05-.23.42 0 .47z" fill="#c66c49" stroke-width="none" opacity="1" transform="translate(0 2)" stroke="none"></path><path id="SvgjsPath13187" d="M102.32 112.41c-.39-.7-1.4-.81-1.96-.25-.05.05-.23.28-.28.34-.06.08-.19.25-.21.28-.06.1-.12.2-.17.3l-.11.26c0-.01-.01.01-.03.05-.06.06-.12.13-.17.19-.17.18-.34.36-.48.57-.4.63-.08 1.35.46 1.75.83.62 2.03.12 2.61-.58.7-.84.89-1.92.34-2.91z" fill="#fcc9b5" stroke-width="none" opacity="1" transform="translate(0 2)" stroke="none"></path></g></g><g id="svga-group-hair-front"><path id="SvgjsPath13645" d="M145.8 79.1c-6.6-37.7-19.9-40.4-23.5-41.7-3.3-1.2-11.7-2.2-22 3-3-4-17.7-4.4-21.3-3s-18.8 6.2-24.8 44.9c-4.5 29.3.6 83.5.6 83.5 9.3 4.5 21.5 5.3 21.5 5.3s-2.7-16.4-6.5-42.9.4-47.5 3.5-57.8C76.4 60 80 55.6 84.6 54.6c4.3-1 14.4 2.9 16 3.5v.1h.2v-.1c1.6-.6 11.7-4.5 16-3.5 4.6 1 7.2 6.3 10.3 16.7 3.1 10.3 8.3 30.4 4.4 56.9-3.9 26.5-6.5 42.9-6.5 42.9s12.2-.8 21.5-5.3c-.1 0 4.3-57.6-.7-86.7z" fill="#5c2b00" stroke-width="none" opacity="1" stroke="none"></path><path id="SvgjsPath13646" d="M131.4 128.6c1-5.2 2.1-14 2.5-28.2.7-26.4-10.7-47.2-14.3-50.2s-19 7.5-19 7.5-11.5-6.6-16.2-7.5c-4.7-.9-8.2 2.1-11.6 12.3s-5.5 23-5.4 39.1c.1 11.2 1.7 22.5 2.6 28.2-.1-.6-.2-1.1-.2-1.7-3.9-26.5.4-47.5 3.5-57.8 3.1-10.4 6.7-14.8 11.3-15.8 4.3-1 14.4 2.9 16 3.5v.1h.2V58c1.6-.6 11.7-4.5 16-3.5 4.6 1 7.2 6.3 10.3 16.7 3.1 10.3 8.3 30.4 4.4 56.9-.1.3-.1.4-.1.5zM99.5 54s-9-6.2-14.3-7.4S73.9 50.3 72 58.4c0 0-.2-4.2 4.6-10.8 4.9-6.8 15.3.2 22.9 6.4zm1.4.9s.2-8.5 0-13.2c0 .1-.9 6.5 0 13.2zm3.7-3.2s6.5-5.1 12-5.8c5.5-.7 10.8 10.8 10.8 10.8s-6.2-9.7-9.9-9.5c-3.7.3-12.9 4.5-12.9 4.5zM133 73.6s4.9 21.7 2.5 46.2-6 47.8-6 47.8 5.8-22.6 7.6-45.3c1.9-22.6-4.1-48.7-4.1-48.7zm7.6-.7s3.2 30.5 2.8 50.6c-.5 20.1-1.9 39.5-1.9 39.5s2.8-23.8 3-43.9c.3-20-3.9-46.2-3.9-46.2zM64.9 92.6s-.5 49 7.4 74.6c0 0-5.8-13.6-7.6-39.3-1.9-25.6.2-35.3.2-35.3zm-.2 74.1s-5.5-23.6-6-45.5c0 0-3 22.9 6 45.5zm8-121.5S57.6 64.5 57.4 93.5c0 0-3.2-27.6 15.3-48.3z" fill="#4d2400" stroke-width="none" opacity="1" stroke="none"></path><path id="SvgjsPath13647" d="M101.8 54.8s9.9-7.7 15.7-7.5c5.8.2 12 12.9 15.9 29.5s1.3 65-4.9 89.8c0 0 5.4-39.1 5.7-52.8.3-13.7.5-30-4.7-47.4-5.2-17.3-10.6-17.6-12.7-17.9-2-.2-15 6.3-15 6.3zm-3.3.8s-8.5-9.3-17.1-8c-8.6 1.2-13.5 24-15.3 41.4-1.8 17.3 4.4 66 8.3 79.5 0 0-4.4-32.1-5.7-44-1.3-11.9-2.1-33.7.3-46.1s6.7-24.1 9.6-27.4c2.8-3.5 10-2.9 19.9 4.6zM61.4 77.3s-4.7 39.6 4.9 87c.1 0-7.2-52-4.9-87zM136 75s7.5 32.4.3 89.3c0 0 9.8-56.7-.3-89.3zm-25.1-30.8s4.7-2.7 7.8-2.1c6 1.3 7 5.7 7 5.7s-2.9-7-14.8-3.6z" fill="#6b380b" stroke-width="none" opacity="1" stroke="none"></path></g><g id="svga-group-glasses-single-move" transform="matrix(1,0,0,1,0,0)"><g id="svga-group-glasses-single"></g></g></g></g></g><rect id="svga-credit-rect" width="200" height="15" x="0" y="185" fill="#ecf0f1" opacity="0.5" style="display: none;"></rect><text id="svga-credit-text" font-family="Avenir Next, Roboto, Helvetica, Arial, sans-serif" font-size="10px" text-anchor="start" font-weight="400" size="10px" anchor="start" weight="400" fill="#333333" x="33.40447998046875" y="182.60824704170227" style="display: none;"><tspan id="SvgjsTspan12786" dy="13" x="33.40447998046875">Created on AvatarMaker.com</tspan></text></g><defs id="SvgjsDefs12738"></defs></svg>